<?xml version="1.0" standalone="no"?>
<!DOCTYPE svg PUBLIC "-//W3C//DTD SVG 20010904//EN"
 "http://www.w3.org/TR/2001/REC-SVG-20010904/DTD/svg10.dtd">
<svg version="1.0" xmlns="http://www.w3.org/2000/svg"
 width="500.000000pt" height="500.000000pt" viewBox="0 0 500.000000 500.000000"
 preserveAspectRatio="xMidYMid meet">
<metadata>
Created by potrace 1.14, written by Peter Selinger 2001-2017
</metadata>
<g transform="translate(0.000000,500.000000) scale(0.100000,-0.100000)"
fill="#000000" stroke="none">
<path d="M2630 4929 c0 -6 -4 -8 -9 -4 -5 3 -13 1 -16 -5 -4 -7 -12 -7 -18 -2
-13 9 -76 8 -117 -2 -14 -4 -37 -7 -52 -8 -15 0 -26 -4 -23 -7 2 -4 -5 -7 -15
-7 -10 0 -16 4 -14 8 8 12 -11 9 -24 -4 -9 -9 -12 -9 -12 0 0 10 -3 10 -14 0
-8 -7 -11 -17 -8 -22 3 -5 0 -6 -7 -2 -16 10 -79 -24 -127 -68 -21 -20 -51
-42 -66 -48 -15 -7 -24 -16 -22 -20 3 -4 -13 -19 -36 -34 -22 -15 -40 -29 -40
-31 0 -2 5 -1 12 3 7 5 8 3 4 -5 -5 -7 -15 -10 -23 -6 -14 5 -14 3 -2 -12 12
-15 12 -16 -3 -11 -19 8 -31 -15 -16 -30 6 -6 6 -12 -3 -17 -8 -6 -10 -4 -4 5
6 9 4 11 -4 6 -7 -5 -10 -15 -7 -23 4 -11 2 -13 -9 -9 -13 4 -14 2 -5 -14 6
-11 8 -20 4 -20 -3 0 0 -8 7 -17 10 -11 10 -14 2 -9 -9 5 -13 0 -13 -14 0 -16
-4 -20 -16 -16 -8 3 -12 2 -9 -3 3 -5 1 -12 -5 -16 -5 -3 -10 1 -10 9 0 9 -7
16 -16 16 -9 0 -12 5 -8 13 5 7 0 6 -11 -3 -10 -8 -16 -10 -12 -4 4 7 0 17 -8
24 -14 11 -14 9 -5 -16 6 -16 17 -35 25 -44 8 -8 23 -25 35 -37 11 -13 17 -23
13 -23 -5 0 0 -5 10 -11 21 -13 21 -26 0 -75 -19 -44 -27 -230 -10 -251 5 -7
6 -13 1 -13 -5 0 -9 -19 -8 -42 0 -24 -4 -49 -9 -55 -6 -9 -5 -13 3 -13 8 0 9
-4 3 -12 -5 -7 -9 -38 -9 -70 1 -31 -2 -54 -6 -51 -11 6 -10 -5 2 -27 17 -33
22 -107 7 -122 -18 -18 -26 -52 -33 -140 -3 -40 -9 -84 -13 -98 -5 -14 -7 -34
-5 -45 2 -11 6 -68 8 -127 6 -133 23 -175 100 -250 62 -60 65 -71 71 -248 1
-47 5 -96 9 -110 3 -14 8 -37 11 -52 3 -15 9 -38 15 -52 5 -15 7 -26 4 -26 -4
0 -2 -6 3 -12 14 -17 10 -71 -4 -75 -42 -14 -104 -81 -158 -167 -32 -53 -64
-101 -70 -105 -5 -5 -34 -14 -64 -20 -68 -14 -178 -58 -278 -111 -99 -53 -157
-76 -209 -83 -23 -3 -66 -17 -95 -30 -69 -31 -120 -48 -249 -87 -184 -55 -204
-61 -260 -88 -76 -35 -211 -123 -300 -195 -41 -34 -81 -66 -88 -72 -8 -5 -36
-32 -63 -59 -42 -42 -53 -61 -73 -130 -32 -105 -44 -187 -51 -336 -2 -47 -11
-114 -19 -150 -29 -124 -59 -369 -71 -581 -5 -91 -16 -191 -22 -201 -2 -5
1109 -8 2469 -8 l2473 0 1 87 c1 49 2 120 3 158 0 39 1 79 1 90 0 11 2 106 5
210 2 105 9 237 16 294 12 107 7 249 -12 330 -6 25 -13 56 -15 67 -8 43 -64
189 -81 214 -10 14 -25 39 -33 55 -47 98 -154 217 -250 277 -68 42 -210 101
-310 127 -64 17 -102 24 -235 44 -11 2 -54 11 -95 20 -41 8 -114 21 -161 26
-47 6 -113 20 -145 30 -32 11 -77 24 -99 30 l-40 10 -1 82 c-1 77 -3 83 -30
108 -17 14 -51 37 -76 50 l-47 23 30 25 c16 14 29 31 29 39 0 8 4 14 8 14 9 0
49 108 58 154 3 16 7 33 9 36 2 4 7 22 10 41 10 58 15 67 49 87 72 43 148 214
180 407 8 50 17 100 20 112 3 13 -4 33 -16 48 l-21 27 21 41 c11 23 23 56 26
72 2 17 10 46 16 65 9 30 18 81 22 128 1 6 4 12 8 12 4 0 6 14 5 30 -1 17 1
30 5 30 7 0 8 4 12 60 2 19 8 38 13 42 6 5 6 8 -2 8 -8 0 -9 9 -3 30 5 17 5
30 1 30 -9 0 -8 31 3 48 4 6 3 12 -1 12 -5 0 -9 9 -10 20 -1 12 3 18 9 14 7
-4 7 0 1 12 -5 11 -10 33 -12 49 -1 30 -8 68 -11 73 -2 1 -3 5 -4 10 -1 4 -5
13 -10 21 -7 10 -6 12 4 6 10 -6 11 -4 4 6 -5 8 -9 16 -10 19 0 3 -3 12 -7 20
-5 15 -15 55 -17 75 -1 6 -7 16 -13 24 -9 12 -9 13 0 7 9 -5 11 -2 7 8 -3 9
-10 16 -15 16 -5 0 -9 6 -9 13 0 7 -9 23 -19 34 -11 12 -17 24 -14 27 4 3 1 6
-6 6 -7 0 -10 4 -6 9 3 5 -1 15 -8 23 -8 7 -17 26 -21 41 -3 15 -10 25 -15 23
-5 -3 -14 8 -21 24 -7 17 -16 30 -21 30 -5 0 -9 5 -9 12 0 7 -9 21 -20 33 -10
11 -36 38 -56 60 -21 22 -41 39 -46 37 -5 -1 -11 5 -14 13 -3 8 -10 12 -15 9
-5 -3 -12 2 -15 10 -3 9 -12 16 -19 16 -7 0 -18 7 -25 15 -7 8 -16 12 -21 9
-5 -3 -9 0 -9 5 0 6 -3 11 -7 10 -16 -2 -53 14 -53 23 0 5 -5 6 -11 2 -6 -3
-14 -2 -18 4 -3 5 -22 12 -41 15 -32 4 -49 9 -90 25 -8 3 -18 6 -22 7 -5 2 -9
3 -10 5 -6 4 -44 11 -65 12 -13 0 -23 5 -23 10 0 5 -4 7 -9 4 -5 -4 -22 -1
-38 6 -15 6 -32 12 -38 12 -5 1 -16 7 -24 14 -7 7 -20 11 -27 8 -8 -3 -14 -2
-14 3 0 4 -42 7 -92 6 -51 -1 -103 2 -115 7 -14 4 -23 4 -23 -3z m-680 -463
c0 -3 -4 -8 -10 -11 -5 -3 -10 -1 -10 4 0 6 5 11 10 11 6 0 10 -2 10 -4z"/>
</g>
</svg>
